HIERARCHY
ROOT Hips
{
	OFFSET 0.000000 0.000000 0.000000
	CHANNELS 6 Xposition Yposition Zposition Yrotation Xrotation Zrotation 
	JOINT LeftHip
	{
		OFFSET 0.089933 0.000579 -0.000064
		CHANNELS 3 Yrotation Xrotation Zrotation
		JOINT LeftKnee
		{
			OFFSET 0.000000 -0.450274 0.000001
			CHANNELS 3 Yrotation Xrotation Zrotation
			JOINT LeftAnkle
			{
				OFFSET 0.000000 -0.455087 0.000283
				CHANNELS 3 Yrotation Xrotation Zrotation
				JOINT LeftToe
				{
					OFFSET 0.000000 -0.083893 0.183160
					CHANNELS 3 Yrotation Xrotation Zrotation
					End Site
					{
						OFFSET 0.000000 0.000000 0.000000
					}
				}
			}
		}
	}
	JOINT RightHip
	{
		OFFSET -0.089933 0.000604 -0.000067
		CHANNELS 3 Yrotation Xrotation Zrotation
		JOINT RightKnee
		{
			OFFSET 0.000000 -0.450274 0.000001
			CHANNELS 3 Yrotation Xrotation Zrotation
			JOINT RightAnkle
			{
				OFFSET 0.000000 -0.455087 0.000283
				CHANNELS 3 Yrotation Xrotation Zrotation
				JOINT RightToe
				{
					OFFSET 0.000000 -0.083893 0.183160
					CHANNELS 3 Yrotation Xrotation Zrotation
					End Site
					{
						OFFSET 0.000000 0.000000 0.000000
					}
				}
			}
		}
	}
	JOINT Chest
	{
		OFFSET 0.000000 0.108199 -0.012022
		CHANNELS 3 Yrotation Xrotation Zrotation
		JOINT Chest3
		{
			OFFSET 0.000000 0.206168 -0.010257
			CHANNELS 3 Yrotation Xrotation Zrotation
			JOINT Chest4
			{
				OFFSET 0.000000 0.098558 -0.000242
				CHANNELS 3 Yrotation Xrotation Zrotation
				JOINT Neck
				{
					OFFSET 0.000000 0.137369 0.000000
					CHANNELS 3 Yrotation Xrotation Zrotation
					JOINT Head
					{
						OFFSET 0.000000 0.088151 0.000814
						CHANNELS 3 Yrotation Xrotation Zrotation
						End Site
						{
							OFFSET 0.000000 0.000000 0.000000
						}
					}
				}
				JOINT LeftCollar
				{
					OFFSET 0.030193 0.077146 0.000000
					CHANNELS 3 Yrotation Xrotation Zrotation
					JOINT LeftShoulder
					{
						OFFSET 0.144780 0.000000 0.000000
						CHANNELS 3 Yrotation Xrotation Zrotation
						JOINT LeftElbow
						{
							OFFSET 0.276846 0.000000 0.000000
							CHANNELS 3 Yrotation Xrotation Zrotation
							JOINT LeftWrist
							{
								OFFSET 0.268574 0.000000 0.000066
								CHANNELS 3 Yrotation Xrotation Zrotation
								End Site
								{
									OFFSET 0.000000 0.000000 0.000000
								}
							}
						}
					}
				}
				JOINT RightCollar
				{
					OFFSET -0.030193 0.077146 0.000000
					CHANNELS 3 Yrotation Xrotation Zrotation
					JOINT RightShoulder
					{
						OFFSET -0.144780 0.000000 0.000000
						CHANNELS 3 Yrotation Xrotation Zrotation
						JOINT RightElbow
						{
							OFFSET -0.276846 0.000000 0.000000
							CHANNELS 3 Yrotation Xrotation Zrotation
							JOINT RightWrist
							{
								OFFSET -0.268574 0.000000 0.000066
								CHANNELS 3 Yrotation Xrotation Zrotation
								End Site
								{
									OFFSET 0.000000 0.000000 0.000000
								}
							}
						}
					}
				}
			}
		}
	}
}
MOTION
Frames: 15
Frame Time: 0.016667
0.000000 0.000000 0.000000 147.129152 358.378168 2.387545 12.796614 347.836461 1.519539 5.175367 46.715985 0.541469 7.222854 12.741833 353.555866 5.327411 330.708907 353.813963 350.778928 354.912700 8.526752 354.378446 8.179304 0.331821 336.843294 353.236244 347.152972 0.080321 2.205195 3.204291 358.676741 0.672019 358.105263 0.737937 354.695207 358.287638 2.453839 5.964787 0.161776 356.565361 10.379827 1.126880 352.511172 343.203361 2.659515 352.064783 359.673127 343.931194 359.944014 344.473009 291.831884 12.462939 357.112757 9.937157 352.216378 9.143185 353.550827 4.111258 3.072546 10.107651 4.819457 340.739298 74.501437 7.971266 17.615804 359.759879 9.793950 9.194235 13.518874 
0.000000 0.000000 0.000000 145.336986 358.382911 2.385778 12.200486 346.333968 1.565394 6.005220 48.505050 1.106518 7.444126 14.033689 354.839090 5.930461 331.185828 351.760000 351.479417 354.975642 8.575173 354.561203 8.737777 0.315254 337.605120 352.760525 347.261781 359.961682 2.111419 3.009366 358.731415 0.818738 358.096544 0.681550 354.791023 358.287583 2.466585 5.952439 0.124761 355.939912 10.327152 1.201487 351.286568 343.338145 3.073323 352.052211 359.600884 343.907442 359.917339 344.472742 291.801869 12.371477 356.943727 10.031598 352.061664 8.989497 353.920856 4.144755 3.034073 10.099825 5.353268 340.466622 74.475297 8.311571 17.971876 0.056186 10.261322 9.396028 13.645723 
0.000000 0.000000 0.000000 143.418417 358.474890 2.502480 11.901280 344.894839 1.616678 6.278881 49.784139 1.291188 7.527615 14.352570 355.336855 5.719295 332.244938 351.642387 352.184261 355.016497 8.466534 354.814349 9.082694 0.303911 338.417792 352.494220 347.331416 359.951687 2.146542 2.966468 358.791949 0.881032 358.036667 0.667455 354.833445 358.247657 2.485882 5.872129 0.079197 355.271803 10.401134 1.270368 349.945073 343.525515 3.610434 352.099363 359.439696 343.847672 0.008044 344.650477 291.702453 12.191998 356.362510 10.208680 351.879027 8.856689 354.539847 4.149362 2.930303 10.056554 5.766241 340.323031 74.564286 8.520390 18.709164 0.243522 10.688416 9.401065 13.747888 
0.000000 0.000000 0.000000 141.504590 358.619557 2.690420 11.684030 343.553051 1.625381 6.311034 50.601707 1.316685 7.602196 13.823634 355.545684 5.010845 333.737921 352.467280 352.902815 354.830786 8.270211 355.037574 9.706346 0.252708 339.311057 352.181233 347.463107 0.075215 2.207861 3.109979 358.855922 0.861936 357.962198 0.670538 354.820663 358.197927 2.514560 5.879459 0.014676 354.553300 10.524052 1.329578 348.553282 343.704884 4.185363 352.148858 359.210878 343.732102 0.106831 344.849375 291.603218 11.986268 355.355686 10.441376 351.656139 8.635906 355.376097 4.161728 2.787658 9.999144 6.111018 340.206114 74.725126 8.700643 19.618923 0.358938 10.935618 9.476069 13.719537 
0.000000 0.000000 0.000000 139.587625 358.730638 2.875603 11.467238 342.483522 1.608478 6.193252 50.839129 1.294153 7.651912 13.271285 355.564256 4.026729 334.970456 353.598772 353.628130 354.650941 8.039198 355.239692 10.373604 0.212955 340.211739 351.864269 347.599229 0.367514 2.157755 3.428158 358.918648 0.870325 357.903748 0.665334 354.832518 358.163700 2.543284 5.972866 359.873286 353.800370 10.618945 1.402878 347.155358 343.801756 4.768167 352.224627 359.074640 343.724273 0.210133 344.951479 291.526446 11.522842 354.310404 10.504795 351.533070 8.203190 356.432003 4.150483 2.707315 9.987940 6.452503 340.028450 74.864569 8.934531 20.412706 0.462578 11.026676 9.771348 13.592715 
0.000000 0.000000 0.000000 137.706098 358.750987 3.056225 11.230132 341.783121 1.596503 5.843004 50.407442 1.131708 7.604521 12.973497 355.453282 3.063355 335.849033 354.701063 354.331467 354.667038 7.778269 355.489158 10.842681 0.150451 341.117894 351.675493 347.746620 0.550137 1.984986 3.795266 358.978894 0.965310 357.846431 0.653251 354.920571 358.131226 2.581586 6.093356 359.724627 353.009954 10.671111 1.480473 345.756098 343.809394 5.328039 352.291787 359.017633 343.768826 0.268491 344.938611 291.464068 10.872838 353.058741 10.423107 351.457962 7.869758 357.535932 4.093315 2.705510 9.943670 6.777305 339.818964 75.024904 9.221138 21.042841 0.508266 10.936551 10.071984 13.446060 
0.000000 0.000000 0.000000 135.821867 358.737114 3.239679 10.990940 341.332014 1.585011 5.304954 49.421297 0.857354 7.551315 12.597287 355.238785 2.154461 336.872816 355.676468 355.017757 354.719983 7.500822 355.764338 11.319881 0.050567 342.064853 351.505110 347.891203 0.552761 1.772320 4.204233 359.035276 1.114813 357.785377 0.640322 355.055960 358.094691 2.638255 6.118623 359.588565 352.219325 10.739325 1.553849 344.325703 343.877766 5.820143 352.374236 358.955602 343.822113 0.342684 344.953851 291.375656 10.152176 351.732349 10.326679 351.451160 7.672366 358.470476 3.995855 2.703059 9.849194 7.039716 339.700796 75.237618 9.466249 21.581139 0.512969 10.563916 10.181564 13.242568 
0.000000 0.000000 0.000000 133.894785 358.758432 3.370093 10.728129 341.030546 1.633129 4.714697 48.024697 0.582345 7.617120 12.067753 355.062376 1.310023 338.191546 356.297324 355.656671 354.933699 7.265791 356.074791 11.356289 359.965319 343.059243 351.558631 348.008070 0.461304 1.602300 4.464008 359.089664 1.257376 357.756741 0.620748 355.185284 358.086724 2.677825 6.126319 359.494149 351.484144 10.798335 1.619980 342.890891 344.042038 6.141689 352.423320 358.923903 343.876330 0.398376 344.910692 291.305414 9.575738 350.750401 10.216137 351.495653 7.355633 359.146651 3.909796 2.684176 9.744081 7.251679 339.609962 75.406583 9.657754 21.884944 0.511666 9.940053 10.247596 13.022829 
0.000000 0.000000 0.000000 131.914930 358.824374 3.421306 10.492139 340.920941 1.722131 4.364215 46.107320 0.533228 7.979408 11.334331 355.126031 0.360947 339.969504 356.443907 356.305318 355.146502 7.093655 356.365054 11.297899 359.895110 344.127846 351.647118 348.141058 0.293549 1.507229 4.544840 359.140914 1.397014 357.771347 0.592979 355.312231 358.116886 2.677298 6.118461 359.483906 350.832744 10.835011 1.674332 341.493501 344.263298 6.268920 352.407848 358.933737 343.907384 0.409345 344.767885 291.289292 9.241336 350.213771 10.067530 351.508146 7.094528 359.473356 3.863448 2.656568 9.634621 7.425834 339.516068 75.472007 9.793941 21.828028 0.538169 9.299918 10.369533 12.824866 
0.000000 0.000000 0.000000 129.892488 358.919337 3.415789 10.237131 340.975831 1.848904 4.063416 43.796083 0.590191 8.383735 10.462416 355.248259 359.749893 342.003435 356.206441 356.925441 355.448274 6.957687 356.743873 11.001106 359.822603 345.220151 351.868408 348.300027 0.134433 1.480122 4.491399 359.190370 1.532519 357.825659 0.557135 355.435986 358.182580 2.709562 6.122016 359.477913 350.212076 10.850687 1.742130 340.153345 344.526216 6.325276 352.384290 358.992366 343.959356 0.371116 344.553190 291.320442 8.980247 350.113214 9.869413 351.513821 7.170569 359.463355 3.798085 2.608912 9.576158 7.495710 339.516242 75.415455 10.105427 21.553729 0.685911 8.764775 10.414888 12.674303 
0.000000 0.000000 0.000000 127.819334 359.073445 3.365186 9.741512 341.080052 2.022203 3.548079 41.370392 0.610460 8.303037 9.648647 355.158942 0.129839 343.864091 355.754483 357.537668 355.739241 6.847440 357.132085 10.641764 359.752849 346.374619 352.089635 348.486593 0.074560 1.565173 4.340074 359.243147 1.602759 357.905079 0.516444 355.503702 358.271865 2.663125 6.123173 359.468450 349.688453 10.884745 1.811256 338.968295 344.883364 6.326563 352.394478 359.002723 344.023460 0.401477 344.446641 291.347801 8.812333 350.463883 9.716177 351.469999 7.457816 359.163874 3.755194 2.511070 9.547875 7.498986 339.587343 75.328911 10.364564 21.343250 0.837014 8.489777 10.302283 12.602734 
0.000000 0.000000 0.000000 125.679023 359.305934 3.264772 8.986219 341.201437 2.262551 2.777756 38.867876 0.605591 7.557258 8.927726 354.691449 1.269731 345.480032 355.472168 358.198770 355.926828 6.767628 357.388332 10.324170 359.685316 347.680151 352.256515 348.681617 0.142891 1.770224 4.107397 359.298617 1.574820 358.016689 0.470515 355.486487 358.391270 2.561083 6.114345 359.468877 349.260384 10.945406 1.869573 337.973411 345.333174 6.256190 352.440578 358.968154 344.083094 0.505107 344.464297 291.379887 8.819063 351.457166 9.626886 351.381035 7.677679 358.637730 3.716611 2.362140 9.534859 7.422763 339.755111 75.239642 10.548267 21.297045 0.952469 8.493408 10.132295 12.653540 
0.000000 0.000000 0.000000 123.486071 359.592490 3.111414 8.065774 341.465563 2.615638 2.079328 36.131439 0.722103 6.153126 8.214176 353.984941 2.400712 346.953620 355.532726 358.897124 356.090531 6.710491 357.624815 9.914556 359.636317 348.974169 352.465368 348.914398 0.402784 2.014887 3.816464 359.354012 1.486264 358.161197 0.418908 355.416995 358.540777 2.465466 6.102142 359.491383 348.896507 11.014799 1.917620 337.162426 345.776688 6.164785 352.507474 358.915906 344.140536 0.637622 344.540683 291.400448 8.939138 352.944755 9.584946 351.272291 7.899406 358.016431 3.663721 2.180253 9.524149 7.261729 340.007030 75.125463 10.712111 21.305917 1.057042 8.716895 10.029635 12.835778 
0.000000 0.000000 0.000000 121.280803 359.899434 2.919273 6.948364 341.791289 3.223696 1.221065 33.488785 0.597334 4.170187 7.348624 353.187916 3.329258 348.180645 355.927597 359.648894 356.191156 6.656664 357.921757 9.540457 359.628989 350.246827 352.661789 349.113012 0.716053 2.257958 3.591062 359.410217 1.386782 358.321248 0.363180 355.338484 358.704540 2.361906 6.092433 359.520437 348.594887 11.084714 1.973110 336.287267 346.205040 6.265579 352.589834 358.859517 344.202567 0.789019 344.645414 291.391390 9.017232 354.443833 9.566452 351.013053 8.420792 357.270444 3.600835 1.999443 9.506294 7.072134 340.276789 74.999515 10.855225 21.339661 1.112438 9.056208 9.933133 13.123092 
0.000000 0.000000 0.000000 119.064478 0.225460 2.675024 5.230909 342.286889 4.061832 359.747300 30.891249 0.217741 1.898729 6.100697 351.997531 4.402864 349.305142 356.638474 0.414936 356.273380 6.612042 358.262394 9.111649 359.654229 351.497130 352.898947 349.341400 1.066836 2.464276 3.387686 359.468377 1.288206 358.499775 0.301881 355.261048 358.885087 2.243691 6.081750 359.549874 348.370741 11.160478 2.044438 335.445262 346.553830 6.466565 352.666969 358.824141 344.261133 0.936106 344.759825 291.392132 9.045658 355.780028 9.514566 350.653262 8.867869 356.532102 3.535155 1.827666 9.475571 6.890358 340.538870 74.859597 10.957679 21.424953 1.101129 9.357309 9.771150 13.436012 
